solid x_min
facet normal -1.0 0.0 0.0
outer loop
vertex -11.0 6.0 -0.1500001
vertex -11.0 6.0 -3.0
vertex -11.0 -6.0 -0.1500001
endloop
endfacet
facet normal -1.0 0.0 0.0
outer loop
vertex -11.0 6.0 -3.0
vertex -11.0 -6.0 -3.0
vertex -11.0 -6.0 -0.1500001
endloop
endfacet
endsolid x_min
solid x_max
facet normal 1.0 0.0 0.0
outer loop
vertex 11.0 -6.0 -0.1500001
vertex 11.0 6.0 -3.0
vertex 11.0 6.0 -0.1500001
endloop
endfacet
facet normal 1.0 0.0 0.0
outer loop
vertex 11.0 -6.0 -0.1500001
vertex 11.0 -6.0 -3.0
vertex 11.0 6.0 -3.0
endloop
endfacet
endsolid x_max
solid y_min
facet normal 0.0 -1.0 0.0
outer loop
vertex -11.0 -6.0 -3.0
vertex 11.0 -6.0 -3.0
vertex 11.0 -6.0 -0.1500001
endloop
endfacet
facet normal 0.0 -1.0 0.0
outer loop
vertex -11.0 -6.0 -0.1500001
vertex -11.0 -6.0 -3.0
vertex 11.0 -6.0 -0.1500001
endloop
endfacet
endsolid y_min
solid y_max
facet normal 0.0 1.0 0.0
outer loop
vertex 11.0 6.0 -0.1500001
vertex 11.0 6.0 -3.0
vertex -11.0 6.0 -3.0
endloop
endfacet
facet normal 0.0 1.0 0.0
outer loop
vertex 11.0 6.0 -0.1500001
vertex -11.0 6.0 -3.0
vertex -11.0 6.0 -0.1500001
endloop
endfacet
endsolid y_max
solid z_min
facet normal 0.0 0.0 -1.0
outer loop
vertex -11.0 -6.0 -3.0
vertex -11.0 6.0 -3.0
vertex 11.0 6.0 -3.0
endloop
endfacet
facet normal 0.0 0.0 -1.0
outer loop
vertex 11.0 -6.0 -3.0
vertex -11.0 -6.0 -3.0
vertex 11.0 6.0 -3.0
endloop
endfacet
endsolid z_min
solid z_max
facet normal 0.0 0.0 1.0
outer loop
vertex 11.0 6.0 -0.1500001
vertex -11.0 6.0 -0.1500001
vertex -11.0 -6.0 -0.1500001
endloop
endfacet
facet normal 0.0 0.0 1.0
outer loop
vertex 11.0 6.0 -0.1500001
vertex -11.0 -6.0 -0.1500001
vertex 11.0 -6.0 -0.1500001
endloop
endfacet
endsolid z_max
